<?xml version="1.0" standalone="no"?><!DOCTYPE svg PUBLIC "-//W3C//DTD SVG 1.1//EN" "http://www.w3.org/Graphics/SVG/1.1/DTD/svg11.dtd"><svg t="1729683762281" class="icon" viewBox="0 0 1024 1024" version="1.1" xmlns="http://www.w3.org/2000/svg" p-id="18810" xmlns:xlink="http://www.w3.org/1999/xlink" width="200" height="200"><path d="M912 80l-48 16-64 208v80l-9.376 18.752A143.28 143.28 0 0 0 800 352a145.312 145.312 0 0 0-2.144-23.888C786.448 259.968 727.376 208 656 208a144 144 0 0 0-126.128 213.456 137.6 137.6 0 0 0 8.736 13.744l0.48 0.64c3.04 4.24 6.32 8.288 9.808 12.16 1.52 1.696 3.216 3.232 4.816 4.848 1.824 1.84 3.552 3.76 5.472 5.504-1.904-1.744-3.648-3.664-5.472-5.504l-7.024-3.52 2.192-1.328-55.408 33.36 5.024-3.024L448 512l-27.04 40.56c-0.064 0.192-0.176 0.368-0.24 0.56A95.616 95.616 0 0 0 416 582.256V768a48 48 0 0 0 48 48h48v176h368V448l96-304-16-48-48-16z m-134.688 349.376L768 448l-14.144 9.424a143.968 143.968 0 0 0 23.456-28.048z m-155.616 62.336zM656 496z m9.312-0.464c4.016-0.256 7.968-0.688 11.888-1.264L672 496l-6.688-0.464z m-28.704-0.992z m-77.136-35.904z m24.304 17.808z m13.392 6.896zM800 800h-108.464c1.92-2.128 3.648-4.384 5.168-6.832l0.048-0.096c1.456-2.368 2.768-4.848 3.808-7.472 0.288-0.704 0.432-1.472 0.688-2.192 0.688-2.032 1.408-4.048 1.824-6.192A48 48 0 0 0 656 720h-48v-80a32 32 0 0 0 32 32h160v128z" fill="#F9F5EF" p-id="18811"></path><path d="M608 640v80h48a48 48 0 0 1 47.072 57.216c-0.416 2.144-1.136 4.16-1.824 6.192-0.256 0.72-0.4 1.488-0.688 2.192a46.88 46.88 0 0 1-3.808 7.472l-0.048 0.096a47.872 47.872 0 0 1-5.168 6.832H800v-128H640a32 32 0 0 1-32-32z" fill="#06AAE9" p-id="18812"></path><path d="M176 112a64 64 0 0 1-64-64 64 64 0 0 1-64 64 64 64 0 0 1 64 64 64 64 0 0 1 64-64zM368 288a64 64 0 0 1-64-64 64 64 0 0 1-64 64 64 64 0 0 1 64 64 64 64 0 0 1 64-64z" fill="#F8CF26" p-id="18813"></path><path d="M464 816a48 48 0 0 1-48-48V582.256c0-10.048 1.744-19.824 4.72-29.136 0.064-0.192 0.176-0.368 0.24-0.56a95.68 95.68 0 0 1 41.536-52.544l30.992-18.656L548.88 448a146.72 146.72 0 0 1-9.808-12.16l-0.48-0.64a137.6 137.6 0 0 1-8.736-13.744 431.92 431.92 0 0 0-338.768 133.584L48 672l120.688 133.04C225.344 890.016 316 947.776 416 960l96 16V816h-48z" fill="#F4462D" p-id="18814"></path><path d="M493.472 481.36l-30.992 18.656z" fill="#F9F5EF" p-id="18815"></path><path d="M176 96C149.536 96 128 74.464 128 48a16 16 0 1 0-32 0c0 26.464-21.536 48-48 48a16 16 0 1 0 0 32c26.464 0 48 21.536 48 48a16 16 0 1 0 32 0c0-26.464 21.536-48 48-48a16 16 0 1 0 0-32zM112 128.048A80.688 80.688 0 0 0 95.952 112 80.688 80.688 0 0 0 112 95.952c4.56 6.08 9.984 11.488 16.048 16.048A80.688 80.688 0 0 0 112 128.048zM240 272a16 16 0 1 0 0 32c26.464 0 48 21.536 48 48a16 16 0 1 0 32 0c0-26.464 21.536-48 48-48a16 16 0 1 0 0-32c-26.464 0-48-21.536-48-48a16 16 0 1 0-32 0c0 26.464-21.536 48-48 48z m64-0.048c4.56 6.08 9.984 11.488 16.048 16.048A80.688 80.688 0 0 0 304 304.048 80.688 80.688 0 0 0 287.952 288 80.688 80.688 0 0 0 304 271.952zM288 48h32v32h-32zM464 144h32v32h-32zM64 416h32v32H64zM112 256h32v32H112zM720 48h32v32h-32zM37.872 659.616a16.016 16.016 0 0 0-1.728 23.136l119.904 132.176c60.16 89.632 154.128 148.272 257.312 160.864l96 16A16 16 0 0 0 528 976v-144h128a63.456 63.456 0 0 0 41.888-16H800a16 16 0 0 0 16-16V608a16 16 0 0 0-16-16H640c-26.464 0-48 21.536-48 48v64h-48v-64h-32v80a16 16 0 0 0 16 16h128c17.648 0 32 14.352 32 32 0 2.032-0.24 4.016-0.608 5.952a31.84 31.84 0 0 1-1.36 4.672l-0.24 0.768a33.248 33.248 0 0 1-6.144 9.904l-0.208 0.32A31.792 31.792 0 0 1 656 800H464c-17.648 0-32-14.352-32-32V582.272c0-27.888 14.848-54.16 38.736-68.544l75.552-45.488c0.544 0.512 1.136 0.944 1.68 1.44 2.992 2.752 6.048 5.424 9.248 7.936 0.736 0.576 1.488 1.104 2.24 1.68 3.328 2.528 6.72 4.96 10.24 7.232 0.64 0.416 1.296 0.784 1.936 1.184 3.664 2.288 7.392 4.464 11.232 6.448l1.744 0.832c3.92 1.968 7.888 3.808 11.984 5.456 0.624 0.256 1.28 0.464 1.92 0.704 4.032 1.552 8.096 3.008 12.272 4.256 0.944 0.288 1.92 0.48 2.88 0.736 3.856 1.056 7.728 2.08 11.696 2.848 1.872 0.368 3.76 0.56 5.648 0.864 3.12 0.496 6.208 1.056 9.392 1.36 5.168 0.512 10.368 0.784 15.6 0.784 88.224 0 160-71.776 160-160 0-4.272-0.256-8.672-0.672-13.184a154.608 154.608 0 0 0-1.136-9.52l-0.144-1.2c1.072-7.008 1.68-13.744 1.856-20.448L877.28 109.824c21.824-15.888 45.072-18.208 62.864-6.112a45.008 45.008 0 0 1 17.792 50.784l-93.216 300.352a15.92 15.92 0 0 0-0.72 4.752V992h32V462.016l92.496-298.032a76.8 76.8 0 0 0-30.336-86.704c-23.936-16.32-63.968-22.16-104.72 10.512-2.368 1.984-4.32 4.896-5.232 7.824L793.76 271.04C765.904 223.84 714.672 192 656 192c-88.224 0-160 71.776-160 160 0 18.496 3.312 36.192 9.12 52.72a447.088 447.088 0 0 0-324.896 138.576l-142.352 116.32zM640 624h144v32h-144a16.016 16.016 0 0 1 0-32z m16 80h-32v-18.736c1.376 0.48 2.848 0.752 4.272 1.12 0.912 0.224 1.776 0.528 2.704 0.704 2.928 0.56 5.936 0.912 9.024 0.912h144v96h-66.064c0.144-0.576 0.208-1.168 0.336-1.744a67.2 67.2 0 0 0 0.592-3.024c0.672-3.696 1.136-7.44 1.136-11.232 0-35.296-28.704-64-64-64z m0-480c63.296 0 115.856 46.224 126.064 106.656v0.08A130.144 130.144 0 0 1 784 352c0 70.576-57.424 128-128 128-4.512 0-8.992-0.24-13.44-0.72l-0.432-0.064a127.712 127.712 0 0 1-49.888-16.4l-0.512-0.32a127.344 127.344 0 0 1-20.736-15.088l-1.216-1.104a127.552 127.552 0 0 1-8.304-8.336l-0.752-0.832a137.712 137.712 0 0 1-8.192-10.144c-0.416-0.56-0.864-1.104-1.264-1.68a119.232 119.232 0 0 1-6.16-9.728A126.608 126.608 0 0 1 528 352c0-70.576 57.424-128 128-128zM202.704 566.064a414.816 414.816 0 0 1 317.792-129.04c0.64 1.024 1.36 2.016 2.032 3.024 0.544 0.832 1.088 1.648 1.664 2.464l0.8 1.184-70.768 42.608a112.208 112.208 0 0 0-45.12 52.144 174.992 174.992 0 0 0-110.992 59.84l-54.256 63.296 24.304 20.816 54.256-63.296a143.152 143.152 0 0 1 78.256-46.784c-0.32 3.312-0.672 6.608-0.672 9.952V768c0 35.296 28.704 64 64 64h32v125.104l-78.064-12.992c-94.992-11.616-180.992-65.536-235.936-147.952a16.32 16.32 0 0 0-1.456-1.872l-109.376-120.56 130.064-106.304a13.232 13.232 0 0 0 1.472-1.36z" p-id="18816"></path></svg>