<?xml version="1.0" standalone="no"?><!DOCTYPE svg PUBLIC "-//W3C//DTD SVG 1.1//EN" "http://www.w3.org/Graphics/SVG/1.1/DTD/svg11.dtd"><svg t="1729683567403" class="icon" viewBox="0 0 2048 1024" version="1.1" xmlns="http://www.w3.org/2000/svg" p-id="9965" xmlns:xlink="http://www.w3.org/1999/xlink" width="400" height="200"><path d="M1117.055366 598.588081h-119.804188a85.454736 85.454736 0 0 1-77.914611-49.522788L812.006163 313.645875l-197.346448 577.145273c-22.806547 67.023322-114.684351 77.728436-153.036585 18.059061L256.178031 589.000023H85.361648a84.523856 84.523856 0 0 1-85.361648-83.779153c0-46.171622 38.166058-83.686065 85.361648-83.686064h217.825796c29.322703 0 56.597472 14.800984 72.236247 39.096938L510.121951 670.265801 719.569832 57.095492c24.668306-72.236247 127.065048-77.169908 158.808038-7.540123l174.074461 381.660583H1117.055366c40.027817-214.381542 231.509725-376.726922 461.530043-376.726922C1837.835342 54.48903 2047.934838 260.585745 2047.934838 514.902017c0 254.223184-210.099497 460.319899-469.349429 460.319899-230.020318 0-421.409137-162.34538-461.530043-376.633835z m175.284605 0c36.676651 121.014331 150.98865 209.261705 286.245438 209.261706 164.951842 0 298.719223-131.254006 298.719222-292.94777 0-161.87994-133.76738-293.040858-298.719222-293.040858-135.256787 0-249.475699 88.247374-286.245438 209.261705h190.830292c23.458163-25.692273 57.528351-41.889576 95.415146-41.889576 70.74684 0 127.995927 56.318208 127.995927 125.668729 0 69.350521-57.249088 125.482553-127.995927 125.482553-37.886795 0-71.956983-16.104215-95.415146-41.889577h-190.830292z" fill="#7884AD" p-id="9966"></path></svg>